<!DOCTYPE svg PUBLIC "-//W3C//DTD SVG 1.1//EN" "http://www.w3.org/Graphics/SVG/1.1/DTD/svg11.dtd">
<!-- Uploaded to: SVG Repo, www.svgrepo.com, Transformed by: SVG Repo Mixer Tools -->
<svg fill="#ffffff" width="800px" height="800px" viewBox="0 0 32 32" id="icon" xmlns="http://www.w3.org/2000/svg">
<g id="SVGRepo_bgCarrier" stroke-width="0"/>
<g id="SVGRepo_tracerCarrier" stroke-linecap="round" stroke-linejoin="round"/>
<g id="SVGRepo_iconCarrier">
<defs>
<style>.cls-1{fill:none;}</style>
</defs>
<title>logo--youtube</title>
<path d="M29.41,9.26a3.5,3.5,0,0,0-2.47-2.47C24.76,6.2,16,6.2,16,6.2s-8.76,0-10.94.59A3.5,3.5,0,0,0,2.59,9.26,36.13,36.13,0,0,0,2,16a36.13,36.13,0,0,0,.59,6.74,3.5,3.5,0,0,0,2.47,2.47C7.24,25.8,16,25.8,16,25.8s8.76,0,10.94-.59a3.5,3.5,0,0,0,2.47-2.47A36.13,36.13,0,0,0,30,16,36.13,36.13,0,0,0,29.41,9.26ZM13.2,20.2V11.8L20.47,16Z"/>
<rect id="_Transparent_Rectangle_" data-name="&lt;Transparent Rectangle&gt;" class="cls-1" width="32" height="32"/>
</g>
</svg>